# xmcd
#
# Track frame offsets:
#	150
#	12093
#	23602
#	36290
#	49215
#	61700
#	76946
#	89170
#	103748
#	117904
#	133604
#	149345
#	162993
#	173402
#	184539
#
# Disc length: 2642 seconds
#
# Revision: 0
# Processed by: cddbd v1.5.2PL0 Copyright (c) Steve Scherf et al.
# Submitted via: audiograbber 1.83.01
#
DISCID=bc0a500f
DTITLE=Various Artist - The Soul Story: Volume 3 - Disc 2
DYEAR=2006
DGENRE=Soul
TTITLE0=The Temptations - Get Ready
TTITLE1=Bobby "Blue" Bland - Turn On Your Love Light
TTITLE2=James Brown - It's A Man's Man's Man's World
TTITLE3=Marvin Gaye - I'll Be Doggone
TTITLE4=Smokey Robinson and the Miracles - I Second That Emotion
TTITLE5=Edwin Starr - War
TTITLE6=Bobby Hebb - Sunny
TTITLE7=The Undisputed Truth - Smiling Faces Sometimes
TTITLE8=Diana Ross and the Supremes - I'm Gonna Make You Love Me
TTITLE9=David Ruffin - My Whole World Ended (The Moment You Left Me)
TTITLE10=Diana Ross and the Supremes - Someday We'll Be Together
TTITLE11=The Four Tops - Bernadette
TTITLE12=Little Anthony and the Imperials - Hurt So Bad
TTITLE13=The Falcons - You're So Fine
TTITLE14=Billy Stewart - I Do Love You
EXTD=
EXTT0=
EXTT1=
EXTT2=
EXTT3=
EXTT4=
EXTT5=
EXTT6=
EXTT7=
EXTT8=
EXTT9=
EXTT10=
EXTT11=
EXTT12=
EXTT13=
EXTT14=
PLAYORDER=
